# xmcd CD database file
#
# Track frame offsets:
#	150
#	11414
#	21189
#	36983
#	50101
#	63544
#	82810
#	96559
#	117168
#	137545
#	158795
#	176802
#	202855
#	216201
#	233491
#	253349
#	275586
#	300513
#	312567
#
# Disc length: 4345 seconds
#
# Revision: 0
# Processed by: cddbd v1.5.2PL0 Copyright (c) Steve Scherf et al.
# Submitted via: CDex 1.79
#
DISCID=0c10f713
DTITLE=Celia Cruz - The Rough Guide to Celia Cruz
DYEAR=2002
DGENRE=Salsa
TTITLE0=1 La Jaibera
TTITLE1=2 El Cacahuatero
TTITLE2=3 Arrecotin Arrecoton
TTITLE3=4 Metida Con You
TTITLE4=5 La Campeona
TTITLE5=6 Reina Rumba
TTITLE6=7 Elegua
TTITLE7=8 Bambrakatunga
TTITLE8=9 No Me Cambie
TTITLE9=10 El Paso Dul Mulo
TTITLE10=11 La Madre Rumba
TTITLE11=12 Nada Se Selva
TTITLE12=13 Sugar Sugar
TTITLE13=14 Cucala
TTITLE14=15 Rico Changui
TTITLE15=16 Flor De Mayo
TTITLE16=17 Se Que Tu
TTITLE17=18 Te Solte La Rienda
TTITLE18=19 Cuando Sali de Cuba
EXTD=YEAR: 2002
EXTT0=
EXTT1=
EXTT2=
EXTT3=
EXTT4=
EXTT5=
EXTT6=
EXTT7=
EXTT8=
EXTT9=
EXTT10=
EXTT11=
EXTT12=
EXTT13=
EXTT14=
EXTT15=
EXTT16=
EXTT17=
EXTT18=
PLAYORDER=
